<svg version="1.1" id="Layer_1" xmlns="http://www.w3.org/2000/svg" xmlns:xlink="http://www.w3.org/1999/xlink" x="0px" y="0px"
	 width="100%" viewBox="0 0 707 168" enable-background="new 0 0 707 168" xml:space="preserve">
<path fill="#FCFCFC" opacity="1.000000" stroke="none" 
	d="
M445.000000,1.000000 
	C532.644653,1.000000 620.289307,1.000000 707.966980,1.000000 
	C707.966980,56.963921 707.966980,112.927872 707.966980,168.900955 
	C707.869446,168.927902 707.738831,168.995560 707.608276,168.995575 
	C472.167389,169.000015 236.726517,169.000000 1.142816,169.000000 
	C1.142816,113.109589 1.142816,57.218697 1.142816,1.000000 
	C141.688507,1.000000 282.377289,1.000000 423.596436,1.464409 
	C424.126801,7.337930 424.126801,12.747044 424.126801,18.098194 
	C431.558380,18.098194 438.284485,18.098194 445.000000,18.098194 
	C445.000000,12.192782 445.000000,6.596391 445.000000,1.000000 
M472.525543,95.520546 
	C475.725006,106.063042 478.924438,116.605530 482.337219,127.850922 
	C488.140259,123.229393 493.050964,119.021309 498.287720,115.268211 
	C501.079803,113.267128 501.852753,111.014969 501.838898,107.742348 
	C501.726807,81.271255 501.779968,54.799477 501.766693,28.327915 
	C501.765900,26.715357 501.628998,25.102869 501.554565,23.471024 
	C494.761963,23.471024 488.390961,23.471024 481.482483,23.471024 
	C481.482483,33.506008 481.482483,43.161533 481.482483,52.817059 
	C477.626984,44.130501 474.752380,35.322266 471.606354,26.612043 
	C471.101044,25.212967 469.435120,23.312099 468.218292,23.245741 
	C461.969330,22.904955 455.691833,23.087898 449.812744,23.087898 
	C449.358429,23.841270 449.204681,23.977188 449.204376,24.113430 
	C449.141479,52.578281 449.082794,81.043152 449.065979,109.508041 
	C449.065399,110.451653 449.169922,111.804924 449.769043,112.276299 
	C456.181366,117.321404 462.703400,122.227081 470.298950,128.011459 
	C470.298950,116.022247 470.298950,105.589844 470.931488,95.191269 
	C471.338989,95.084335 471.746490,94.977402 472.525543,95.520546 
M217.563141,23.083237 
	C210.864365,21.814098 207.131821,24.473619 204.619385,30.970066 
	C201.626526,38.708763 197.310562,45.935764 193.040848,54.433270 
	C188.581284,44.384373 184.698807,35.437584 180.595551,26.593208 
	C179.943771,25.188345 178.349625,23.312788 177.103958,23.244459 
	C170.854340,22.901657 164.575760,23.087341 158.507812,23.087341 
	C158.214752,23.987228 158.028641,24.292280 158.028305,24.597528 
	C157.998642,52.238506 157.973251,79.879509 158.004089,107.520454 
	C158.005295,108.598564 158.197525,110.145058 158.902740,110.680626 
	C165.282394,115.525581 171.796402,120.193626 179.358231,125.706047 
	C179.358231,109.138992 179.358231,94.020088 179.358231,78.901176 
	C179.666367,78.859909 179.974503,78.818649 180.282623,78.777382 
	C184.937195,88.978096 189.591751,99.178810 194.755417,110.495270 
	C199.354706,99.186188 203.528625,88.923027 207.702545,78.659859 
	C208.186050,78.772865 208.669540,78.885864 209.153046,78.998863 
	C209.153046,94.094910 209.153046,109.190956 209.153046,125.196175 
	C215.416367,120.681419 220.709961,116.685066 226.201645,112.982513 
	C228.992172,111.101105 229.934402,108.901283 229.915649,105.533524 
	C229.772995,79.890434 229.842499,54.246189 229.826553,28.602316 
	C229.825455,26.843042 229.667572,25.083868 229.570953,23.083239 
	C225.498901,23.083239 222.013214,23.083239 217.563141,23.083237 
M419.779144,65.500069 
	C419.779144,51.434002 419.779144,37.367931 419.779144,23.083479 
	C414.527435,23.083479 410.145935,23.530958 405.896027,22.974136 
	C400.134583,22.219267 397.392059,24.576601 395.205841,29.747160 
	C391.784088,37.839809 387.450348,45.546860 382.988037,54.443836 
	C378.493835,44.321693 374.584229,35.367405 370.505280,26.490900 
	C369.898560,25.170521 368.539001,23.296047 367.452728,23.244047 
	C361.036774,22.936914 354.598694,23.092724 347.912415,23.092724 
	C347.912415,51.710781 347.906403,79.681816 347.937958,107.652802 
	C347.939056,108.605118 347.984222,109.996567 348.571228,110.441689 
	C355.071228,115.370659 361.682556,120.152832 369.406403,125.811852 
	C369.406403,109.131485 369.406403,94.044151 369.406403,78.956818 
	C369.691010,78.925652 369.975647,78.894478 370.260254,78.863304 
	C374.912140,89.049393 379.563995,99.235481 384.698090,110.477440 
	C389.318817,99.142616 393.504608,88.874748 397.690399,78.606873 
	C398.104980,78.728958 398.519562,78.851051 398.934143,78.973145 
	C398.934143,94.010941 398.934143,109.048744 398.934143,125.288216 
	C405.085480,120.842903 410.301483,116.849258 415.759521,113.219551 
	C418.688019,111.272011 419.930603,109.106766 419.867645,105.482117 
	C419.641937,92.491508 419.779114,79.494606 419.779144,65.500069 
M617.415649,108.499832 
	C617.415710,116.163872 617.319336,123.830078 617.491882,131.490234 
	C617.529358,133.156860 618.049438,135.298828 619.164429,136.376007 
	C626.313354,143.282440 633.690002,149.953064 641.150574,156.847900 
	C650.114685,149.245575 658.781616,141.988205 667.296936,134.557007 
	C668.370667,133.619965 669.205994,131.771072 669.210754,130.341537 
	C669.317322,98.352859 669.325623,66.363670 669.256409,34.374786 
	C669.245422,29.298187 662.601990,23.093891 657.544739,23.084047 
	C648.714417,23.066856 639.884155,23.078894 631.053833,23.079351 
	C623.094482,23.079763 617.430420,28.832361 617.423218,37.023987 
	C617.402466,60.515915 617.415771,84.007874 617.415649,108.499832 
M302.081390,120.413498 
	C305.598969,123.208267 309.250854,125.853653 312.585968,128.851425 
	C314.734222,130.782410 316.304169,130.812485 318.596466,129.077805 
	C326.024384,123.456841 333.723969,118.189560 341.048370,112.441315 
	C342.680786,111.160210 344.091705,108.479050 344.109680,106.429359 
	C344.320038,82.451225 344.255615,58.470573 344.236145,34.490608 
	C344.231750,29.073011 338.281891,23.111252 332.873871,23.092922 
	C323.215393,23.060184 313.556671,23.078564 303.898071,23.085443 
	C297.138214,23.090258 291.618530,28.714405 291.615204,35.632202 
	C291.604950,56.947739 292.166931,78.284447 291.355927,99.569084 
	C290.998810,108.941841 293.297424,115.564491 302.081390,120.413498 
M546.884583,120.379021 
	C549.519897,118.345337 552.410400,116.558578 554.700745,114.191177 
	C556.229614,112.610909 557.805847,110.211746 557.823486,108.165810 
	C558.035645,83.516304 557.975098,58.864315 557.949219,34.213013 
	C557.943848,29.115942 551.914185,23.113428 546.804565,23.092102 
	C537.144104,23.051785 527.483337,23.078430 517.822693,23.081089 
	C510.774445,23.083029 505.216492,28.693697 505.214111,35.838768 
	C505.206665,58.324780 505.494232,80.816566 505.035278,103.293205 
	C504.901123,109.863960 506.699554,114.218834 512.180786,117.696289 
	C516.522095,120.450539 520.371460,123.980141 525.378418,127.900864 
	C525.378418,115.854805 525.378418,105.251381 525.378418,94.495239 
	C529.332947,94.495239 532.853333,94.495239 537.062744,94.495239 
	C537.062744,105.519539 537.062744,116.156845 537.062744,127.585434 
	C540.709106,124.914680 543.510376,122.862900 546.884583,120.379021 
M154.291412,60.500122 
	C154.291397,51.843410 154.312698,43.186623 154.283630,34.530010 
	C154.265289,29.066103 148.385345,23.110956 142.968140,23.092474 
	C132.979767,23.058397 122.991165,23.063536 113.002769,23.090450 
	C107.621033,23.104950 101.686913,29.064283 101.678848,34.577339 
	C101.642815,59.215523 101.648109,83.853821 101.700447,108.491943 
	C101.703453,109.907196 101.760742,111.902771 102.630768,112.642052 
	C108.511261,117.638741 114.617699,122.369507 121.700256,128.023956 
	C121.700256,115.909630 121.700256,105.215813 121.700256,94.349228 
	C125.700806,94.349228 129.104980,94.349228 133.044403,94.349228 
	C133.044403,105.285606 133.044403,115.981041 133.044403,127.911736 
	C139.624969,122.959030 145.168640,118.560257 150.965378,114.525024 
	C153.630402,112.669830 154.386139,110.560165 154.356857,107.446495 
	C154.212769,92.132195 154.291412,76.815788 154.291412,60.500122 
M44.201012,31.735825 
	C44.201038,47.395615 44.417606,63.059071 44.152439,78.714371 
	C43.709023,104.893173 45.584743,131.118408 42.927055,157.234390 
	C43.435932,156.955963 44.233856,156.656357 44.869072,156.151886 
	C61.551701,142.902451 78.220123,129.635117 94.875900,116.351952 
	C95.499847,115.854340 96.464172,115.147713 96.441162,114.571579 
	C96.166122,107.683052 95.733978,100.800797 95.317299,93.465515 
	C89.256706,93.465515 83.459518,93.344131 77.677971,93.590309 
	C76.761963,93.629311 75.319267,95.221611 75.136703,96.272392 
	C74.062263,102.456184 69.753601,107.117371 63.217094,108.570267 
	C63.217094,88.058945 63.186581,67.582443 63.294579,47.106674 
	C63.300911,45.906052 64.654747,43.612389 64.994591,43.683243 
	C68.529999,44.420319 73.601364,40.385536 75.450867,46.804226 
	C75.591003,47.290527 76.794724,47.739491 77.509842,47.748569 
	C83.433090,47.823753 89.357697,47.791142 95.773430,47.791142 
	C95.773430,42.107162 95.803841,37.144459 95.741837,32.182915 
	C95.732132,31.406576 95.531425,30.188198 95.030846,29.931654 
	C90.386780,27.551559 85.782097,23.771200 80.928436,23.385340 
	C69.009087,22.437765 56.963657,23.065224 44.969032,23.095165 
	C43.951962,23.097706 42.935562,23.369673 42.281235,23.464149 
	C42.993385,26.185434 43.597042,28.492147 44.201012,31.735825 
M260.672180,89.187462 
	C268.359558,83.641182 276.159760,78.240341 283.645935,72.434639 
	C285.282837,71.165192 286.631622,68.475677 286.692047,66.398804 
	C286.997101,55.916634 286.843719,45.420769 286.827728,34.929749 
	C286.818817,29.080345 280.744415,23.104225 274.771423,23.089109 
	C264.946533,23.064245 255.121552,23.071581 245.296616,23.085495 
	C239.557205,23.093624 234.090530,28.572723 234.084808,34.414963 
	C234.060699,59.060574 234.059143,83.706261 234.115219,108.351768 
	C234.118423,109.760284 234.220963,111.769180 235.100281,112.478783 
	C241.368896,117.537537 247.851608,122.331009 255.309845,128.002472 
	C255.309845,117.436165 255.566971,108.181854 255.197372,98.952637 
	C255.022247,94.579948 256.183289,91.551605 260.672180,89.187462 
M577.856750,97.499947 
	C577.856750,107.333641 577.856750,117.167343 577.856750,127.858994 
	C584.469238,122.852127 589.920105,118.480042 595.643250,114.499596 
	C598.311218,112.644035 599.095886,110.573532 599.072266,107.441307 
	C598.934692,89.127312 598.998352,70.811745 599.015259,52.496735 
	C599.016846,50.754810 599.163940,49.013020 599.256897,46.979233 
	C604.503418,46.979233 609.112793,46.979233 613.890259,46.979233 
	C613.890259,38.930138 613.890259,31.211733 613.890259,23.441448 
	C596.734558,23.441448 579.870239,23.441448 563.168457,23.441448 
	C563.168457,31.530018 563.168457,39.259472 563.168457,47.326355 
	C568.169067,47.326355 572.771606,47.326355 577.856750,47.326355 
	C577.856750,63.951130 577.856750,80.225533 577.856750,97.499947 
M424.135101,120.082825 
	C424.135101,121.587677 424.135101,123.092529 424.135101,125.546806 
	C430.585480,120.894722 435.861053,116.855263 441.389313,113.197632 
	C444.345032,111.242020 445.456360,109.028374 445.434998,105.443756 
	C445.280945,79.645073 445.357422,53.845043 445.340363,28.045454 
	C445.339325,26.466223 445.164520,24.887108 445.079895,23.464874 
	C437.813385,23.464874 431.093658,23.464874 424.135101,23.464874 
	C424.135101,55.620838 424.135101,87.396889 424.135101,120.082825 
z"/>
<path fill="#030303" opacity="1.000000" stroke="none" 
	d="
M444.531464,1.000000 
	C445.000000,6.596391 445.000000,12.192782 445.000000,18.098194 
	C438.284485,18.098194 431.558380,18.098194 424.126801,18.098194 
	C424.126801,12.747044 424.126801,7.337930 424.063416,1.464409 
	C430.687653,1.000000 437.375275,1.000000 444.531464,1.000000 
z"/>
<path fill="#050505" opacity="1.000000" stroke="none" 
	d="
M218.045334,23.083237 
	C222.013214,23.083239 225.498901,23.083239 229.570953,23.083239 
	C229.667572,25.083868 229.825455,26.843042 229.826553,28.602316 
	C229.842499,54.246189 229.772995,79.890434 229.915649,105.533524 
	C229.934402,108.901283 228.992172,111.101105 226.201645,112.982513 
	C220.709961,116.685066 215.416367,120.681419 209.153046,125.196175 
	C209.153046,109.190956 209.153046,94.094910 209.153046,78.998863 
	C208.669540,78.885864 208.186050,78.772865 207.702545,78.659859 
	C203.528625,88.923027 199.354706,99.186188 194.755417,110.495270 
	C189.591751,99.178810 184.937195,88.978096 180.282623,78.777382 
	C179.974503,78.818649 179.666367,78.859909 179.358231,78.901176 
	C179.358231,94.020088 179.358231,109.138992 179.358231,125.706047 
	C171.796402,120.193626 165.282394,115.525581 158.902740,110.680626 
	C158.197525,110.145058 158.005295,108.598564 158.004089,107.520454 
	C157.973251,79.879509 157.998642,52.238506 158.028305,24.597528 
	C158.028641,24.292280 158.214752,23.987228 158.507812,23.087341 
	C164.575760,23.087341 170.854340,22.901657 177.103958,23.244459 
	C178.349625,23.312788 179.943771,25.188345 180.595551,26.593208 
	C184.698807,35.437584 188.581284,44.384373 193.040848,54.433270 
	C197.310562,45.935764 201.626526,38.708763 204.619385,30.970066 
	C207.131821,24.473619 210.864365,21.814098 218.045334,23.083237 
z"/>
<path fill="#050505" opacity="1.000000" stroke="none" 
	d="
M419.779114,66.000076 
	C419.779114,79.494606 419.641937,92.491508 419.867645,105.482117 
	C419.930603,109.106766 418.688019,111.272011 415.759521,113.219551 
	C410.301483,116.849258 405.085480,120.842903 398.934143,125.288216 
	C398.934143,109.048744 398.934143,94.010941 398.934143,78.973145 
	C398.519562,78.851051 398.104980,78.728958 397.690399,78.606873 
	C393.504608,88.874748 389.318817,99.142616 384.698090,110.477440 
	C379.563995,99.235481 374.912140,89.049393 370.260254,78.863304 
	C369.975647,78.894478 369.691010,78.925652 369.406403,78.956818 
	C369.406403,94.044151 369.406403,109.131485 369.406403,125.811852 
	C361.682556,120.152832 355.071228,115.370659 348.571228,110.441689 
	C347.984222,109.996567 347.939056,108.605118 347.937958,107.652802 
	C347.906403,79.681816 347.912415,51.710781 347.912415,23.092724 
	C354.598694,23.092724 361.036774,22.936914 367.452728,23.244047 
	C368.539001,23.296047 369.898560,25.170521 370.505280,26.490900 
	C374.584229,35.367405 378.493835,44.321693 382.988037,54.443836 
	C387.450348,45.546860 391.784088,37.839809 395.205841,29.747160 
	C397.392059,24.576601 400.134583,22.219267 405.896027,22.974136 
	C410.145935,23.530958 414.527435,23.083479 419.779144,23.083479 
	C419.779144,37.367931 419.779144,51.434002 419.779114,66.000076 
z"/>
<path fill="#060606" opacity="1.000000" stroke="none" 
	d="
M617.415649,107.999832 
	C617.415771,84.007874 617.402466,60.515915 617.423218,37.023987 
	C617.430420,28.832361 623.094482,23.079763 631.053833,23.079351 
	C639.884155,23.078894 648.714417,23.066856 657.544739,23.084047 
	C662.601990,23.093891 669.245422,29.298187 669.256409,34.374786 
	C669.325623,66.363670 669.317322,98.352859 669.210754,130.341537 
	C669.205994,131.771072 668.370667,133.619965 667.296936,134.557007 
	C658.781616,141.988205 650.114685,149.245575 641.150574,156.847900 
	C633.690002,149.953064 626.313354,143.282440 619.164429,136.376007 
	C618.049438,135.298828 617.529358,133.156860 617.491882,131.490234 
	C617.319336,123.830078 617.415710,116.163872 617.415649,107.999832 
M636.823486,69.499962 
	C636.823486,83.830788 636.823425,98.161606 636.823547,112.492432 
	C636.823547,120.193665 640.787964,125.722305 648.489990,128.636322 
	C648.489990,99.861099 648.489990,71.133308 648.489990,42.195835 
	C644.529419,42.195835 640.823608,42.195835 636.823486,42.195835 
	C636.823486,51.214993 636.823486,59.857471 636.823486,69.499962 
z"/>
<path fill="#050505" opacity="1.000000" stroke="none" 
	d="
M470.298950,95.157448 
	C470.298950,105.589844 470.298950,116.022247 470.298950,128.011459 
	C462.703400,122.227081 456.181366,117.321404 449.769043,112.276299 
	C449.169922,111.804924 449.065399,110.451653 449.065979,109.508041 
	C449.082794,81.043152 449.141479,52.578281 449.204376,24.113430 
	C449.204681,23.977188 449.358429,23.841270 449.812744,23.087898 
	C455.691833,23.087898 461.969330,22.904955 468.218292,23.245741 
	C469.435120,23.312099 471.101044,25.212967 471.606354,26.612043 
	C474.752380,35.322266 477.626984,44.130501 481.482483,52.817059 
	C481.482483,43.161533 481.482483,33.506008 481.482483,23.471024 
	C488.390961,23.471024 494.761963,23.471024 501.554565,23.471024 
	C501.628998,25.102869 501.765900,26.715357 501.766693,28.327915 
	C501.779968,54.799477 501.726807,81.271255 501.838898,107.742348 
	C501.852753,111.014969 501.079803,113.267128 498.287720,115.268211 
	C493.050964,119.021309 488.140259,123.229393 482.337219,127.850922 
	C478.924438,116.605530 475.725006,106.063042 472.408997,94.823181 
	C471.932404,92.930573 471.572357,91.735336 471.212341,90.540100 
	C470.815369,90.645172 470.418396,90.750237 470.021423,90.855301 
	C470.113922,92.289352 470.206451,93.723404 470.298950,95.157448 
z"/>
<path fill="#040404" opacity="1.000000" stroke="none" 
	d="
M301.805542,120.187614 
	C293.297424,115.564491 290.998810,108.941841 291.355927,99.569084 
	C292.166931,78.284447 291.604950,56.947739 291.615204,35.632202 
	C291.618530,28.714405 297.138214,23.090258 303.898071,23.085443 
	C313.556671,23.078564 323.215393,23.060184 332.873871,23.092922 
	C338.281891,23.111252 344.231750,29.073011 344.236145,34.490608 
	C344.255615,58.470573 344.320038,82.451225 344.109680,106.429359 
	C344.091705,108.479050 342.680786,111.160210 341.048370,112.441315 
	C333.723969,118.189560 326.024384,123.456841 318.596466,129.077805 
	C316.304169,130.812485 314.734222,130.782410 312.585968,128.851425 
	C309.250854,125.853653 305.598969,123.208267 301.805542,120.187614 
M311.604218,89.431137 
	C309.373108,98.865196 316.633881,102.217361 322.576660,107.055199 
	C322.576660,85.652077 322.576660,64.851822 322.576660,44.188469 
	C318.736633,44.188469 315.335754,44.188469 311.604218,44.188469 
	C311.604218,59.197460 311.604218,73.824974 311.604218,89.431137 
z"/>
<path fill="#060606" opacity="1.000000" stroke="none" 
	d="
M546.598145,120.595078 
	C543.510376,122.862900 540.709106,124.914680 537.062744,127.585434 
	C537.062744,116.156845 537.062744,105.519539 537.062744,94.495239 
	C532.853333,94.495239 529.332947,94.495239 525.378418,94.495239 
	C525.378418,105.251381 525.378418,115.854805 525.378418,127.900864 
	C520.371460,123.980141 516.522095,120.450539 512.180786,117.696289 
	C506.699554,114.218834 504.901123,109.863960 505.035278,103.293205 
	C505.494232,80.816566 505.206665,58.324780 505.214111,35.838768 
	C505.216492,28.693697 510.774445,23.083029 517.822693,23.081089 
	C527.483337,23.078430 537.144104,23.051785 546.804565,23.092102 
	C551.914185,23.113428 557.943848,29.115942 557.949219,34.213013 
	C557.975098,58.864315 558.035645,83.516304 557.823486,108.165810 
	C557.805847,110.211746 556.229614,112.610909 554.700745,114.191177 
	C552.410400,116.558578 549.519897,118.345337 546.598145,120.595078 
M528.015320,43.737835 
	C527.073547,44.565338 525.332214,45.374901 525.313171,46.223114 
	C525.113708,55.111931 525.189941,64.006927 525.189941,73.100601 
	C529.257019,73.100601 532.821106,73.100601 536.493164,73.100601 
	C536.493164,63.304054 536.493164,53.788708 536.493164,43.735516 
	C533.754150,43.735516 531.311462,43.735516 528.015320,43.737835 
z"/>
<path fill="#050505" opacity="1.000000" stroke="none" 
	d="
M154.291412,61.000126 
	C154.291412,76.815788 154.212769,92.132195 154.356857,107.446495 
	C154.386139,110.560165 153.630402,112.669830 150.965378,114.525024 
	C145.168640,118.560257 139.624969,122.959030 133.044403,127.911736 
	C133.044403,115.981041 133.044403,105.285606 133.044403,94.349228 
	C129.104980,94.349228 125.700806,94.349228 121.700256,94.349228 
	C121.700256,105.215813 121.700256,115.909630 121.700256,128.023956 
	C114.617699,122.369507 108.511261,117.638741 102.630768,112.642052 
	C101.760742,111.902771 101.703453,109.907196 101.700447,108.491943 
	C101.648109,83.853821 101.642815,59.215523 101.678848,34.577339 
	C101.686913,29.064283 107.621033,23.104950 113.002769,23.090450 
	C122.991165,23.063536 132.979767,23.058397 142.968140,23.092474 
	C148.385345,23.110956 154.265289,29.066103 154.283630,34.530010 
	C154.312698,43.186623 154.291397,51.843410 154.291412,61.000126 
M121.663071,55.509781 
	C121.663071,61.395035 121.663071,67.280289 121.663071,73.084671 
	C125.801811,73.084671 129.214874,73.084671 132.762039,73.084671 
	C132.762039,63.322250 132.762039,53.814251 132.762039,44.061516 
	C129.082748,44.061516 125.697205,44.061516 121.663063,44.061516 
	C121.663063,47.663219 121.663063,51.088093 121.663071,55.509781 
z"/>
<path fill="#070707" opacity="1.000000" stroke="none" 
	d="
M44.200855,31.267342 
	C43.597042,28.492147 42.993385,26.185434 42.281235,23.464149 
	C42.935562,23.369673 43.951962,23.097706 44.969032,23.095165 
	C56.963657,23.065224 69.009087,22.437765 80.928436,23.385340 
	C85.782097,23.771200 90.386780,27.551559 95.030846,29.931654 
	C95.531425,30.188198 95.732132,31.406576 95.741837,32.182915 
	C95.803841,37.144459 95.773430,42.107162 95.773430,47.791142 
	C89.357697,47.791142 83.433090,47.823753 77.509842,47.748569 
	C76.794724,47.739491 75.591003,47.290527 75.450867,46.804226 
	C73.601364,40.385536 68.529999,44.420319 64.994591,43.683243 
	C64.654747,43.612389 63.300911,45.906052 63.294579,47.106674 
	C63.186581,67.582443 63.217094,88.058945 63.217094,108.570267 
	C69.753601,107.117371 74.062263,102.456184 75.136703,96.272392 
	C75.319267,95.221611 76.761963,93.629311 77.677971,93.590309 
	C83.459518,93.344131 89.256706,93.465515 95.317299,93.465515 
	C95.733978,100.800797 96.166122,107.683052 96.441162,114.571579 
	C96.464172,115.147713 95.499847,115.854340 94.875900,116.351952 
	C78.220123,129.635117 61.551701,142.902451 44.869072,156.151886 
	C44.233856,156.656357 43.435932,156.955963 42.927055,157.234390 
	C45.584743,131.118408 43.709023,104.893173 44.152439,78.714371 
	C44.417606,63.059071 44.201038,47.395615 44.200855,31.267342 
z"/>
<path fill="#050505" opacity="1.000000" stroke="none" 
	d="
M260.376190,89.405502 
	C256.183289,91.551605 255.022247,94.579948 255.197372,98.952637 
	C255.566971,108.181854 255.309845,117.436165 255.309845,128.002472 
	C247.851608,122.331009 241.368896,117.537537 235.100281,112.478783 
	C234.220963,111.769180 234.118423,109.760284 234.115219,108.351768 
	C234.059143,83.706261 234.060699,59.060574 234.084808,34.414963 
	C234.090530,28.572723 239.557205,23.093624 245.296616,23.085495 
	C255.121552,23.071581 264.946533,23.064245 274.771423,23.089109 
	C280.744415,23.104225 286.818817,29.080345 286.827728,34.929749 
	C286.843719,45.420769 286.997101,55.916634 286.692047,66.398804 
	C286.631622,68.475677 285.282837,71.165192 283.645935,72.434639 
	C276.159760,78.240341 268.359558,83.641182 260.376190,89.405502 
M265.051025,59.182167 
	C265.912231,53.920231 266.773438,48.658295 267.695404,43.025261 
	C262.771790,43.025261 259.224762,43.025261 255.587555,43.025261 
	C255.587555,50.652328 255.587555,57.970581 255.587555,65.314888 
	C256.243988,65.276840 256.641113,65.377090 256.852448,65.222801 
	C259.387238,63.372398 261.894440,61.484257 265.051025,59.182167 
z"/>
<path fill="#030303" opacity="1.000000" stroke="none" 
	d="
M577.856750,96.999939 
	C577.856750,80.225533 577.856750,63.951130 577.856750,47.326355 
	C572.771606,47.326355 568.169067,47.326355 563.168457,47.326355 
	C563.168457,39.259472 563.168457,31.530018 563.168457,23.441448 
	C579.870239,23.441448 596.734558,23.441448 613.890259,23.441448 
	C613.890259,31.211733 613.890259,38.930138 613.890259,46.979233 
	C609.112793,46.979233 604.503418,46.979233 599.256897,46.979233 
	C599.163940,49.013020 599.016846,50.754810 599.015259,52.496735 
	C598.998352,70.811745 598.934692,89.127312 599.072266,107.441307 
	C599.095886,110.573532 598.311218,112.644035 595.643250,114.499596 
	C589.920105,118.480042 584.469238,122.852127 577.856750,127.858994 
	C577.856750,117.167343 577.856750,107.333641 577.856750,96.999939 
z"/>
<path fill="#040404" opacity="1.000000" stroke="none" 
	d="
M424.135101,119.627884 
	C424.135101,87.396889 424.135101,55.620838 424.135101,23.464874 
	C431.093658,23.464874 437.813385,23.464874 445.079895,23.464874 
	C445.164520,24.887108 445.339325,26.466223 445.340363,28.045454 
	C445.357422,53.845043 445.280945,79.645073 445.434998,105.443756 
	C445.456360,109.028374 444.345032,111.242020 441.389313,113.197632 
	C435.861053,116.855263 430.585480,120.894722 424.135101,125.546806 
	C424.135101,123.092529 424.135101,121.587677 424.135101,119.627884 
z"/>
<path fill="#999999" opacity="1.000000" stroke="none" 
	d="
M470.615234,95.174362 
	C470.206451,93.723404 470.113922,92.289352 470.021423,90.855301 
	C470.418396,90.750237 470.815369,90.645172 471.212341,90.540100 
	C471.572357,91.735336 471.932404,92.930573 472.223206,94.498138 
	C471.746490,94.977402 471.338989,95.084335 470.615234,95.174362 
z"/>
<path fill="#EFEFEF" opacity="1.000000" stroke="none" 
	d="
M636.823486,68.999954 
	C636.823486,59.857471 636.823486,51.214993 636.823486,42.195835 
	C640.823608,42.195835 644.529419,42.195835 648.489990,42.195835 
	C648.489990,71.133308 648.489990,99.861099 648.489990,128.636322 
	C640.787964,125.722305 636.823547,120.193665 636.823547,112.492432 
	C636.823425,98.161606 636.823486,83.830788 636.823486,68.999954 
z"/>
<path fill="#F9F9F9" opacity="1.000000" stroke="none" 
	d="
M311.604218,88.941811 
	C311.604218,73.824974 311.604218,59.197460 311.604218,44.188469 
	C315.335754,44.188469 318.736633,44.188469 322.576660,44.188469 
	C322.576660,64.851822 322.576660,85.652077 322.576660,107.055199 
	C316.633881,102.217361 309.373108,98.865196 311.604218,88.941811 
z"/>
<path fill="#EEEEEE" opacity="1.000000" stroke="none" 
	d="
M528.442017,43.736675 
	C531.311462,43.735516 533.754150,43.735516 536.493164,43.735516 
	C536.493164,53.788708 536.493164,63.304054 536.493164,73.100601 
	C532.821106,73.100601 529.257019,73.100601 525.189941,73.100601 
	C525.189941,64.006927 525.113708,55.111931 525.313171,46.223114 
	C525.332214,45.374901 527.073547,44.565338 528.442017,43.736675 
z"/>
<path fill="#FBFBFB" opacity="1.000000" stroke="none" 
	d="
M121.663071,55.011375 
	C121.663063,51.088093 121.663063,47.663219 121.663063,44.061516 
	C125.697205,44.061516 129.082748,44.061516 132.762039,44.061516 
	C132.762039,53.814251 132.762039,63.322250 132.762039,73.084671 
	C129.214874,73.084671 125.801811,73.084671 121.663071,73.084671 
	C121.663071,67.280289 121.663071,61.395035 121.663071,55.011375 
z"/>
<path fill="#EAEAEA" opacity="1.000000" stroke="none" 
	d="
M264.729919,59.394070 
	C261.894440,61.484257 259.387238,63.372398 256.852448,65.222801 
	C256.641113,65.377090 256.243988,65.276840 255.587555,65.314888 
	C255.587555,57.970581 255.587555,50.652328 255.587555,43.025261 
	C259.224762,43.025261 262.771790,43.025261 267.695404,43.025261 
	C266.773438,48.658295 265.912231,53.920231 264.729919,59.394070 
z"/>
</svg>